<svg width="756" height="637" viewBox="0 0 756 637" fill="none" xmlns="http://www.w3.org/2000/svg">
<path d="M11.5352 433.845C50.5484 450.473 75.932 472.842 92.4039 495.358L89.6628 520.602L99.9388 506.627C125.567 548.735 116.968 588.68 116.968 588.68L107.174 588.617C58.7505 588.315 17.5707 550.858 10.7116 500.347C10.6356 499.813 10.568 499.279 10.5005 498.745L28.4549 496.266L9.23761 485.335C7.44681 456.722 11.5352 433.845 11.5352 433.845Z" fill="#1C0E0C"/>
<path d="M5.74048 434.94C44.7578 451.568 70.1373 473.937 86.6261 496.475L83.8892 521.715L94.1609 507.74C119.794 549.848 116.922 589.289 116.922 589.289L101.869 589.338C53.3232 589.508 11.814 552.104 4.93378 501.464C4.86198 500.926 4.79018 500.392 4.7226 499.858L22.6812 497.379L3.45976 486.457C1.65629 457.816 5.74048 434.94 5.74048 434.94Z" fill="#53B38D" stroke="black" stroke-width="6" stroke-linecap="round" stroke-linejoin="round"/>
<path d="M5.3688 504.482L67.1259 536.936" stroke="#070707" stroke-width="6" stroke-linecap="round" stroke-linejoin="round"/>
<path d="M45.8855 507.686L44.3988 455.961" stroke="#070707" stroke-width="6" stroke-linecap="round" stroke-linejoin="round"/>
<path d="M5.74048 434.94C5.74048 434.94 43.0135 526.526 116.922 589.289" stroke="#070707" stroke-width="6" stroke-linecap="round" stroke-linejoin="round"/>
<path d="M753 206.064C753 206.064 727.57 205.236 738.788 249.77C750.005 294.303 703.048 289.915 694.655 311.162C690.17 322.525 713.75 378.283 673.356 398.004C640.15 414.218 604.372 430.974 595.283 467.399L585.083 376.08C585.083 376.08 577.291 334.689 612.376 325.284C664.981 311.162 636.873 277.257 651.271 257.496C667.088 235.821 691.745 249.992 701.84 236.302C709.244 226.279 719.249 188.542 753 206.064Z" fill="#53B38D" stroke="black" stroke-width="6" stroke-linecap="round" stroke-linejoin="round"/>
<path d="M752.92 206.064C752.402 206.068 751.886 206.107 751.374 206.18C747.505 205.837 737.035 205.543 730.429 211.374C726.691 214.676 724.723 219.483 724.584 225.66C724.292 238.541 723.372 247.184 719.515 253.255C715.541 259.534 708.61 262.855 696.332 264.359C684.506 265.805 675.637 270.456 670.568 277.804C665.923 284.565 664.575 293.64 666.624 304.063C668.461 313.41 669.517 327.207 664.119 340.047C658.231 354.031 646.08 363.769 627.999 368.977C618.209 371.803 610.104 376.071 603.925 381.661C599.116 385.949 595.313 391.35 592.812 397.443C588.652 407.648 589.691 416.421 589.704 416.51H589.598L588.483 406.536C589.045 403.162 589.977 399.868 591.262 396.722C593.868 390.386 597.828 384.772 602.835 380.317C609.221 374.558 617.546 370.165 627.581 367.272C668.571 355.442 668.617 322.823 664.998 304.428C662.852 293.52 664.313 283.955 669.221 276.781C674.539 269.014 683.852 264.114 696.142 262.605C707.879 261.168 714.447 258.079 718.105 252.28C721.712 246.574 722.582 238.189 722.869 225.634C723.021 218.922 725.192 213.666 729.323 210.025C731.857 207.8 736.583 204.974 744.582 204.368C746.093 204.255 747.609 204.222 749.123 204.27C750.373 204.782 751.627 205.37 752.92 206.064Z" fill="#070707"/>
<path d="M108.306 449.423C108.306 449.423 55.1985 452.093 47.7059 399.41C40.8003 350.871 73.5246 335.027 50.523 316.699C27.5214 298.371 13.571 284.133 24.1553 260.54C33.8695 238.861 28.0832 225.068 13.495 229.208C13.495 229.208 30.3892 205.401 54.075 224.565C76.1432 242.408 50.7553 275.503 79.881 275.908C108.306 276.305 129.626 287.267 125.394 323.086C123.772 336.776 114.328 356.061 129.719 376.609C151.264 405.379 108.306 449.423 108.306 449.423Z" stroke="#070707" stroke-width="6" stroke-linecap="round" stroke-linejoin="round"/>
<path d="M12.9332 228.611C12.9332 228.611 55.5702 208.223 46.5951 258.195C38.6505 302.426 81.1439 283.301 92.5982 320.811C103.259 355.718 81.0299 414.925 125.648 426.435" stroke="#070707" stroke-width="6" stroke-linecap="round" stroke-linejoin="round"/>
<path d="M737.212 412.5C725.969 455.226 707.765 484.347 688.388 504.184H664.275L678.635 513.352C641.848 544.952 603.211 540.501 603.211 540.501L597.834 488.206C609.69 446.205 644.196 427.231 675.903 418.815L680.283 437.334L688.4 415.971C715.182 410.822 737.212 412.5 737.212 412.5Z" fill="#1C0E0C"/>
<path d="M735.523 406.558C724.28 449.285 706.072 478.41 686.698 498.242H662.586L676.946 507.415C640.159 539.015 602.645 540.506 602.645 540.506L596.141 482.273C608 440.272 642.503 421.321 674.213 412.878L678.589 431.397L686.711 410.034C713.488 404.88 735.523 406.558 735.523 406.558Z" fill="#F5F5DC" stroke="#070707" stroke-width="6" stroke-linecap="round" stroke-linejoin="round"/>
<path d="M600.352 520.064L735.523 406.558" stroke="#070707" stroke-width="6" stroke-linecap="round" stroke-linejoin="round"/>
<path d="M669.914 414.071L646.237 481.53" stroke="#070707" stroke-width="6" stroke-linecap="round" stroke-linejoin="round"/>
<path d="M679.641 453.482L720.098 449.423" stroke="#070707" stroke-width="6" stroke-linecap="round" stroke-linejoin="round"/>
<path d="M607.312 513.873L676.933 507.406" stroke="#070707" stroke-width="6" stroke-linecap="round" stroke-linejoin="round"/>
<path d="M78.4577 87.5647H230.739V9.53098H78.4577L98.186 48.5501L78.4577 87.5647Z" fill="#1C0E0C"/>
<path d="M83.2472 82.2195H235.532V4.18579H83.2472L102.976 43.2049L83.2472 82.2195Z" fill="#F5F5DC" stroke="#070707" stroke-width="6" stroke-linecap="round" stroke-linejoin="round"/>
<path d="M235.528 4.18579V322.378" stroke="#070707" stroke-width="8" stroke-linecap="round" stroke-linejoin="round"/>
<path d="M545.99 117.496L498.745 540.497H236.145L283.385 117.496H545.99Z" fill="#F5F5DC"/>
<path d="M602.632 540.497H489.631L537.534 111.554H554.729L602.632 540.497Z" stroke="#070707" stroke-width="6" stroke-linecap="round" stroke-linejoin="round"/>
<path d="M537.535 111.554L489.631 540.497H227.026L274.934 111.554H537.535Z" stroke="#070707" stroke-width="6" stroke-linecap="round" stroke-linejoin="round"/>
<path d="M433.668 29.9774C444.857 29.9774 455.587 34.6609 463.498 42.9975C471.409 51.3341 475.853 62.641 475.853 74.4308V111.554H391.471V74.4308C391.471 68.592 392.562 62.8103 394.683 57.4161C396.804 52.0219 399.912 47.1209 403.831 42.9928C407.749 38.8648 412.401 35.5906 417.521 33.3574C422.641 31.1242 428.128 29.9757 433.668 29.9774Z" fill="#F5F5DC" stroke="#070707" stroke-width="6" stroke-linecap="round" stroke-linejoin="round"/>
<path d="M405.193 29.9774C416.381 29.9774 427.111 34.6609 435.022 42.9975C442.934 51.3341 447.378 62.641 447.378 74.4308V111.554H363.008V74.4308C363.008 62.641 367.453 51.3341 375.364 42.9975C383.275 34.6609 394.005 29.9774 405.193 29.9774V29.9774Z" stroke="#070707" stroke-width="6" stroke-linecap="round" stroke-linejoin="round"/>
<path d="M504.016 242.511H465.552L470.452 183.472C471.381 172.279 480.744 163.204 491.371 163.204C501.993 163.204 509.849 172.279 508.92 183.472L504.016 242.511Z" fill="#F5F5DC"/>
<path d="M500.637 238.946H462.169L467.073 179.907C468.002 168.714 477.366 159.639 487.988 159.639C498.61 159.639 506.466 168.714 505.537 179.907L500.637 238.946Z" stroke="#070707" stroke-width="6" stroke-linecap="round" stroke-linejoin="round"/>
<path d="M489.355 179.129C491.086 177.383 491.258 174.614 489.74 172.943C488.222 171.272 485.589 171.333 483.858 173.078C482.128 174.824 481.956 177.593 483.473 179.264C484.991 180.935 487.625 180.874 489.355 179.129Z" stroke="#070707" stroke-width="6" stroke-linecap="round" stroke-linejoin="round"/>
<path d="M486.754 174.486L492.245 108.505C492.43 106.267 493.405 104.184 494.976 102.666C496.548 101.148 498.603 100.306 500.734 100.307C501.854 100.306 502.962 100.538 503.996 100.989C505.03 101.44 505.969 102.101 506.761 102.935C507.552 103.768 508.18 104.758 508.609 105.848C509.037 106.937 509.258 108.105 509.258 109.284V111.558" stroke="#070707" stroke-width="6" stroke-linecap="round" stroke-linejoin="round"/>
<path d="M484.212 217.636C485.192 217.473 486.102 216.998 486.818 216.274C487.437 215.639 487.819 214.791 487.895 213.884C487.957 213.478 487.929 213.062 487.813 212.669C487.697 212.276 487.497 211.916 487.228 211.618C486.529 210.993 485.709 210.537 484.824 210.283L482.848 209.66C481.651 209.323 480.49 208.856 479.384 208.267C478.484 207.774 477.736 207.018 477.23 206.091C476.681 204.972 476.475 203.702 476.639 202.455C476.746 200.64 477.513 198.939 478.78 197.706C480.05 196.468 481.796 195.75 484.018 195.552H486.045C487.033 195.636 488.003 195.885 488.917 196.29C489.706 196.663 490.393 197.242 490.911 197.973C491.32 198.508 491.645 199.109 491.874 199.753C492.073 200.281 492.16 200.85 492.127 201.418C492.079 201.98 491.826 202.502 491.422 202.873C491.027 203.269 490.501 203.49 489.956 203.487C488.913 203.487 488.267 202.895 488.076 201.707C487.989 201.055 487.725 200.445 487.315 199.948C486.904 199.452 486.367 199.092 485.766 198.912L483.743 198.845C482.953 199.062 482.211 199.44 481.56 199.958C481.276 200.219 481.048 200.539 480.889 200.899C480.729 201.258 480.643 201.649 480.635 202.045C480.576 202.401 480.593 202.767 480.686 203.115C480.779 203.463 480.945 203.785 481.171 204.057C481.763 204.612 482.458 205.034 483.211 205.294L485.188 205.917C486.474 206.3 487.496 206.649 488.254 206.963C489.004 207.253 489.689 207.705 490.264 208.289C490.873 208.909 491.333 209.671 491.607 210.515C491.896 211.422 491.999 212.384 491.907 213.336C491.802 214.615 491.406 215.848 490.754 216.933C490.069 218.07 489.125 219.009 488.009 219.665C486.765 220.398 485.381 220.83 483.959 220.929L481.927 220.965C480.821 220.854 479.742 220.541 478.738 220.039C477.901 219.61 477.157 219.004 476.55 218.259C476.018 217.619 475.61 216.875 475.351 216.069C475.121 215.354 475.032 214.597 475.089 213.844C475.144 213.28 475.401 212.76 475.807 212.388C476.222 211.965 476.779 211.731 477.357 211.739C477.777 211.721 478.192 211.846 478.54 212.095C478.854 212.332 479.071 212.687 479.144 213.087C479.299 213.803 479.492 214.509 479.722 215.201C479.905 215.708 480.194 216.164 480.567 216.536C481.036 216.98 481.6 217.297 482.21 217.462L484.212 217.636Z" fill="#1C0E0C"/>
<path d="M482.734 223.422H482.662C482.551 223.412 482.443 223.379 482.345 223.325C482.246 223.271 482.159 223.197 482.087 223.107C482.016 223.017 481.962 222.913 481.929 222.802C481.895 222.69 481.883 222.572 481.893 222.456L484.313 193.291C484.323 193.174 484.354 193.06 484.406 192.956C484.457 192.852 484.528 192.759 484.613 192.684C484.698 192.609 484.797 192.552 484.903 192.516C485.009 192.481 485.121 192.468 485.232 192.478C485.343 192.489 485.451 192.522 485.55 192.576C485.648 192.63 485.736 192.704 485.808 192.794C485.879 192.884 485.933 192.988 485.967 193.1C486 193.212 486.012 193.329 486.003 193.446L483.583 222.612C483.564 222.834 483.466 223.041 483.308 223.191C483.151 223.341 482.946 223.424 482.734 223.422Z" fill="#1C0E0C"/>
<path d="M222.296 323.504H191.632C191.632 323.504 162.173 296.012 149.3 279.798C147.542 277.569 145.936 275.211 144.493 272.744C138.521 262.539 145.422 249.378 156.801 249.311H157.13C188.254 249.311 222.312 308.723 222.296 323.504Z" fill="#1C0E0C"/>
<path d="M239.203 323.504H217.629C217.629 323.504 196.908 304.166 187.857 292.754C186.619 291.187 185.49 289.529 184.478 287.792C183.525 286.16 183.002 284.291 182.96 282.376C182.919 280.461 183.361 278.569 184.242 276.893C185.123 275.217 186.411 273.819 187.974 272.84C189.537 271.862 191.318 271.339 193.136 271.324H193.347C215.251 271.306 239.215 313.107 239.203 323.504Z" fill="#F5F5DC"/>
<path d="M175.068 218.272C226.68 217.703 244.634 295.425 243.489 323.504H222.296C222.296 308.723 188.254 249.311 157.13 249.311C146.09 249.311 139.585 259.677 142.914 269.063C142.914 269.063 121.521 218.864 175.068 218.272Z" fill="#53B38D" stroke="black" stroke-width="6" stroke-linecap="round" stroke-linejoin="round"/>
<path d="M373.352 310.37C377.681 299.439 371.852 286.844 361.057 283.412C310.999 267.501 259.818 323.504 259.818 323.504H227.026C227.026 323.504 273.528 241.919 350.946 254.047C367.895 256.699 390.166 273.901 373.352 310.37Z" fill="#53B38D" stroke="black" stroke-width="6" stroke-linecap="round" stroke-linejoin="round"/>
<path d="M373.271 310.557C370.944 316.289 368.097 321.657 366.091 323.504H337.629C337.629 323.504 344.445 321.074 351.026 310.557C359.021 297.788 355.321 281.984 344.361 280.902C349.987 281.085 355.587 281.672 361.069 283.412C371.911 286.866 377.748 299.582 373.271 310.557Z" fill="#1C0E0C"/>
<path d="M396.248 322.614H166.316C156.223 322.614 148.041 331.236 148.041 341.872V584.167C148.041 594.803 156.223 603.425 166.316 603.425H396.248C406.341 603.425 414.523 594.803 414.523 584.167V341.872C414.523 331.236 406.341 322.614 396.248 322.614Z" fill="#53B38D" stroke="black" stroke-width="6" stroke-linecap="round" stroke-linejoin="round"/>
<path d="M349.315 322.614H126.581C116.488 322.614 108.306 331.236 108.306 341.872V584.167C108.306 594.803 116.488 603.425 126.581 603.425H349.315C359.408 603.425 367.591 594.803 367.591 584.167V341.872C367.591 331.236 359.408 322.614 349.315 322.614Z" fill="#F5F5DC" stroke="#070707" stroke-width="6" stroke-linecap="round" stroke-linejoin="round"/>
<path d="M218.959 356.702C216.633 354.249 213.668 352.578 210.44 351.901C207.213 351.224 203.867 351.571 200.827 352.898C197.786 354.224 195.187 356.472 193.359 359.355C191.531 362.239 190.555 365.629 190.555 369.097V420.173H223.833V369.097C223.836 366.794 223.407 364.513 222.571 362.386C221.734 360.259 220.507 358.327 218.959 356.702ZM207.196 369.608C206.485 369.609 205.79 369.388 205.198 368.972C204.607 368.557 204.145 367.965 203.873 367.273C203.6 366.581 203.528 365.82 203.666 365.085C203.805 364.35 204.147 363.674 204.649 363.144C205.152 362.614 205.792 362.253 206.489 362.107C207.187 361.96 207.91 362.035 208.567 362.321C209.224 362.608 209.785 363.093 210.18 363.716C210.575 364.339 210.786 365.072 210.786 365.821C210.787 366.319 210.695 366.812 210.516 367.272C210.336 367.732 210.072 368.151 209.738 368.503C209.405 368.856 209.009 369.136 208.572 369.327C208.136 369.518 207.669 369.617 207.196 369.617V369.608Z" fill="#F5F5DC"/>
<path d="M216.704 353.435C214.376 350.981 211.411 349.31 208.182 348.634C204.953 347.957 201.606 348.305 198.565 349.633C195.524 350.962 192.926 353.211 191.098 356.097C189.271 358.982 188.297 362.374 188.3 365.843V416.919H221.578V365.843C221.582 363.538 221.154 361.255 220.318 359.126C219.481 356.996 218.253 355.062 216.704 353.435ZM204.941 366.342C204.231 366.342 203.537 366.12 202.946 365.704C202.356 365.288 201.896 364.698 201.624 364.006C201.352 363.315 201.281 362.554 201.42 361.821C201.558 361.087 201.9 360.413 202.402 359.884C202.904 359.354 203.544 358.994 204.241 358.848C204.937 358.702 205.659 358.777 206.315 359.063C206.971 359.35 207.531 359.835 207.926 360.457C208.32 361.079 208.531 361.81 208.531 362.559C208.532 363.056 208.439 363.549 208.259 364.008C208.079 364.468 207.815 364.886 207.481 365.238C207.148 365.59 206.752 365.87 206.316 366.061C205.88 366.251 205.413 366.35 204.941 366.351V366.342Z" stroke="#070707" stroke-width="6" stroke-linecap="round" stroke-linejoin="round"/>
<path d="M204.941 361.139V321.737C204.94 320.586 205.155 319.446 205.573 318.382C205.99 317.318 206.603 316.352 207.375 315.537C208.148 314.723 209.064 314.077 210.074 313.637C211.083 313.196 212.165 312.969 213.257 312.969V312.969C215.464 312.969 217.58 313.893 219.141 315.537C220.701 317.182 221.578 319.412 221.578 321.737V322.627" stroke="#070707" stroke-width="6" stroke-linecap="round" stroke-linejoin="round"/>
<path d="M211.703 392.285C211.403 391.552 210.953 390.899 210.385 390.371C209.855 389.86 209.239 389.458 208.569 389.187C207.889 388.916 206.977 388.617 205.836 388.297H205.756V382.226H205.836C206.374 382.386 206.86 382.695 207.246 383.12C207.633 383.545 207.904 384.07 208.033 384.643C208.303 385.675 208.877 386.187 209.79 386.187C210.017 386.191 210.243 386.145 210.453 386.054C210.664 385.963 210.855 385.828 211.014 385.658C211.175 385.495 211.302 385.299 211.389 385.082C211.475 384.866 211.519 384.633 211.517 384.398C211.502 383.898 211.387 383.406 211.179 382.956C210.939 382.399 210.623 381.882 210.242 381.421C209.739 380.792 209.106 380.294 208.392 379.965C207.583 379.617 206.728 379.401 205.857 379.324H205.777V377.477C205.777 377.241 205.688 377.015 205.53 376.848C205.371 376.681 205.157 376.587 204.933 376.587C204.708 376.587 204.494 376.681 204.335 376.848C204.177 377.015 204.088 377.241 204.088 377.477V379.329C202.187 379.504 200.734 380.124 199.729 381.189C199.225 381.729 198.83 382.372 198.569 383.079C198.309 383.785 198.187 384.54 198.213 385.297C198.167 386.403 198.438 387.498 198.99 388.439C199.492 389.246 200.189 389.897 201.009 390.326C201.996 390.832 203.027 391.234 204.088 391.528V398.298C203.547 398.154 203.044 397.881 202.618 397.501C202.263 397.182 201.975 396.788 201.773 396.344C201.525 395.747 201.308 395.136 201.123 394.515C201.025 394.164 200.815 393.86 200.527 393.656C200.214 393.443 199.848 393.336 199.476 393.348C199.236 393.342 198.997 393.389 198.775 393.485C198.553 393.582 198.353 393.726 198.187 393.909C198.026 394.072 197.897 394.268 197.808 394.484C197.719 394.7 197.671 394.933 197.668 395.169C197.673 395.833 197.804 396.49 198.052 397.1C198.343 397.801 198.747 398.443 199.248 398.996C199.825 399.631 200.51 400.145 201.266 400.514C202.155 400.944 203.106 401.215 204.079 401.315V402.708C204.079 402.944 204.168 403.171 204.327 403.338C204.485 403.505 204.7 403.598 204.924 403.598C205.148 403.598 205.363 403.505 205.521 403.338C205.68 403.171 205.769 402.944 205.769 402.708V401.288H205.849C207.052 401.21 208.221 400.835 209.262 400.194C210.18 399.629 210.933 398.81 211.441 397.826C211.934 396.87 212.188 395.798 212.18 394.71C212.182 393.876 212.02 393.05 211.703 392.285ZM202.217 386.677C201.814 386.178 201.596 385.543 201.604 384.888C201.612 384.234 201.844 383.604 202.259 383.116C202.785 382.665 203.397 382.339 204.054 382.159V387.741C203.382 387.514 202.759 387.153 202.217 386.677ZM207.978 397.269C207.402 397.902 206.645 398.318 205.824 398.453H205.743V392.053H205.824C206.619 392.283 207.361 392.683 208.003 393.228C208.255 393.478 208.451 393.783 208.579 394.121C208.706 394.459 208.762 394.823 208.742 395.187C208.757 395.957 208.487 396.704 207.99 397.269H207.978Z" fill="#1C0E0C"/>
<path d="M585.472 597.14C592.838 597.14 598.81 590.848 598.81 583.085C598.81 575.323 592.838 569.03 585.472 569.03C578.106 569.03 572.134 575.323 572.134 583.085C572.134 590.848 578.106 597.14 585.472 597.14Z" fill="#F5F5DC" stroke="#070707" stroke-width="6" stroke-linecap="round" stroke-linejoin="round"/>
<path d="M626.534 295.572C629.645 295.572 632.168 292.913 632.168 289.634C632.168 286.355 629.645 283.697 626.534 283.697C623.422 283.697 620.899 286.355 620.899 289.634C620.899 292.913 623.422 295.572 626.534 295.572Z" fill="#F5F5DC" stroke="#070707" stroke-width="6" stroke-linecap="round" stroke-linejoin="round"/>
<path d="M604.495 608.77C606.83 608.77 608.723 606.775 608.723 604.315C608.723 601.854 606.83 599.86 604.495 599.86C602.16 599.86 600.267 601.854 600.267 604.315C600.267 606.775 602.16 608.77 604.495 608.77Z" fill="#F4F1ED" stroke="#070707" stroke-width="6" stroke-linecap="round" stroke-linejoin="round"/>
<path d="M89.4052 468.943C91.7401 468.943 93.633 466.949 93.633 464.488C93.633 462.028 91.7401 460.033 89.4052 460.033C87.0703 460.033 85.1774 462.028 85.1774 464.488C85.1774 466.949 87.0703 468.943 89.4052 468.943Z" fill="#C5DCDD"/>
<path d="M547.895 532.69H260.502V633.476H547.895V532.69Z" fill="#F5F5DC" stroke="#070707" stroke-width="6" stroke-linecap="round" stroke-linejoin="round"/>
<path d="M494.108 532.69H225.32V633.476H494.108V532.69Z" fill="#F5F5DC" stroke="#070707" stroke-width="6" stroke-linecap="round" stroke-linejoin="round"/>
<path d="M548.845 503.841H224.585V539.522H548.845V503.841Z" fill="#1C0E0C"/>
<path d="M559.826 497.009H248.57V532.69H559.826V497.009Z" fill="#F5F5DC" stroke="#070707" stroke-width="6" stroke-linecap="round" stroke-linejoin="round"/>
<path d="M505.262 497.009H214.157V532.69H505.262V497.009Z" fill="#F5F5DC" stroke="#070707" stroke-width="6" stroke-linecap="round" stroke-linejoin="round"/>
<path d="M514.064 470.181C513.866 472.628 509.68 484.298 509.68 484.298L295.786 476.665V464.083C295.786 442.996 302.586 424.784 306.188 416.875C311.742 404.662 319.434 407.706 319.434 407.706C319.434 407.706 340.353 429.252 363.815 429.252C368.338 429.252 371.582 426.729 373.892 423.057C375.278 420.78 376.357 418.312 377.098 415.722C378.075 412.351 378.762 408.893 379.151 405.392C379.326 403.91 379.837 402.494 380.642 401.265C381.447 400.036 382.521 399.029 383.773 398.33C385.026 397.631 386.42 397.261 387.837 397.251C389.254 397.24 390.653 397.59 391.914 398.271C401.126 403.26 412.31 414.427 442.242 431.473C443.746 432.333 445.295 433.204 446.888 434.085C483.321 454.265 513.676 446.752 514.064 470.181Z" fill="#F5F5DC" stroke="#070707" stroke-width="6" stroke-linecap="round" stroke-linejoin="round"/>
<path d="M490.011 495.447C496.207 495.447 503.759 492.492 507.817 487.712C511.876 482.932 515.285 474.208 513.38 464.835H513.211C511.167 476.407 501.317 482.082 493.909 482.082L308.469 476.349C302.717 476.349 297.796 472.165 295.798 466.242V479.367C295.798 488.268 301.91 495.447 309.453 495.447H490.011Z" fill="#F5F5DC" stroke="#070707" stroke-width="6" stroke-linecap="round" stroke-linejoin="round"/>
<path d="M373.896 423.057C372.27 429.897 361.728 437.183 331.141 427.623C305.669 419.661 295.786 453.112 295.786 466.242V464.079C295.786 442.991 302.586 424.779 306.188 416.87C311.742 404.658 319.434 407.702 319.434 407.702C319.434 407.702 340.353 429.248 363.815 429.248C368.338 429.248 371.582 426.724 373.892 423.052L373.896 423.057Z" fill="#53B38D" stroke="black" stroke-width="6" stroke-linecap="round" stroke-linejoin="round"/>
<path d="M450.389 435.964C404.065 419.269 380.882 411.712 377.098 415.718C378.075 412.346 378.762 408.889 379.151 405.387C379.326 403.905 379.837 402.49 380.642 401.261C381.447 400.031 382.521 399.024 383.773 398.326C385.026 397.627 386.42 397.257 387.837 397.246C389.254 397.236 390.653 397.586 391.914 398.266C401.147 403.273 416.525 418.112 450.389 435.964Z" fill="#F5F5DC" stroke="#070707" stroke-width="6" stroke-linecap="round" stroke-linejoin="round"/>
<path d="M403.09 419.278L409.096 409.656C409.446 409.093 409.901 408.612 410.434 408.241C410.966 407.87 411.565 407.617 412.193 407.498C412.821 407.378 413.466 407.395 414.088 407.546C414.71 407.697 415.296 407.981 415.811 408.378V408.378C416.734 409.088 417.38 410.129 417.628 411.304C417.876 412.479 417.709 413.71 417.158 414.765L416.36 416.305" stroke="#070707" stroke-width="6" stroke-linecap="round" stroke-linejoin="round"/>
<path d="M416.863 423.48L421.116 416.456C421.422 415.965 421.819 415.544 422.285 415.22C422.75 414.896 423.273 414.674 423.822 414.57C424.37 414.465 424.934 414.48 425.477 414.612C426.021 414.744 426.533 414.992 426.983 415.339V415.339C427.788 415.961 428.352 416.87 428.568 417.897C428.784 418.924 428.638 419.999 428.157 420.92L427.456 422.256" stroke="#070707" stroke-width="6" stroke-linecap="round" stroke-linejoin="round"/>
<path d="M437.989 428.941C438.497 427.965 438.651 426.828 438.423 425.741C438.194 424.655 437.599 423.693 436.747 423.034V423.034C436.271 422.667 435.729 422.406 435.154 422.267C434.579 422.128 433.983 422.113 433.402 422.223C432.821 422.334 432.268 422.568 431.776 422.911C431.284 423.254 430.863 423.699 430.539 424.218L427.848 427.935" stroke="#070707" stroke-width="6" stroke-linecap="round" stroke-linejoin="round"/>
<path d="M450.305 435.919C439.375 438.003 429.224 443.294 421.019 451.183C412.814 459.072 406.886 469.24 403.918 480.519L395.382 480.217C398.092 468.596 403.543 457.885 411.229 449.076C418.915 440.267 428.587 433.646 439.349 429.826C440.295 430.375 441.26 430.928 442.242 431.486C443.746 432.347 445.294 433.218 446.888 434.099C448.029 434.735 449.173 435.336 450.305 435.919Z" fill="#53B38D" stroke="black" stroke-width="6" stroke-linecap="round" stroke-linejoin="round"/>
<path d="M471.461 444.558V445.737C460.584 445.75 449.946 449.103 440.848 455.386C431.751 461.67 424.589 470.611 420.237 481.116L411.368 480.795C415.074 470.474 421.111 461.259 428.955 453.948C436.8 446.637 446.217 441.449 456.391 438.834C461.315 441.022 466.345 442.932 471.461 444.558Z" fill="#53B38D" stroke="black" stroke-width="6" stroke-linecap="round" stroke-linejoin="round"/>
</svg>
