<svg width="107" height="40" viewBox="0 0 107 40" fill="none" xmlns="http://www.w3.org/2000/svg">
<path d="M11.0322 12V8.99999C11.0322 8.31199 11.1518 7.66599 11.3908 7.06199C11.6298 6.44799 11.9608 5.91599 12.3819 5.46799C12.7937 5.00999 13.2828 4.64999 13.8473 4.38999C14.4026 4.12999 14.9965 3.99999 15.629 3.99999C16.1457 3.99999 16.6385 4.08799 17.1092 4.26599C17.5799 4.44399 18.0101 4.69399 18.4018 5.01599C19.1879 4.35682 20.1526 3.99954 21.1451 3.99999C22.0511 3.99559 22.9379 4.28438 23.6925 4.82962C24.4472 5.37487 25.0358 6.15193 25.3834 7.06199C25.6224 7.66599 25.7419 8.31199 25.7419 8.99999V12H27.5806C28.0683 12 28.536 12.2107 28.8808 12.5858C29.2256 12.9608 29.4193 13.4696 29.4193 14V30C29.4193 30.834 29.2759 31.614 28.9891 32.344C28.7022 33.062 28.3088 33.698 27.8105 34.25C27.4795 34.602 27.1173 34.906 26.7183 35.162L25.6334 34.65L24.7233 34.208L24.3335 33.974L23.9253 33.644L23.4821 33.22L22.9894 32.648C22.387 31.9225 22.057 30.9775 22.0645 30V12H23.9032V8.99999C23.9032 8.58399 23.8315 8.19199 23.6881 7.82799C23.4799 7.28234 23.1267 6.81679 22.6736 6.49107C22.2205 6.16536 21.6882 5.99435 21.1451 5.99999C20.5807 5.99999 20.0732 6.17199 19.6227 6.51599C20.019 7.27282 20.2268 8.12902 20.2258 8.99999V30C20.218 31.4782 20.7207 32.9056 21.6342 34L22.2024 34.66L22.7687 35.2L23.3369 35.66L23.9032 36H12.871C11.4117 35.9997 10.012 35.3704 8.9784 34.25C8.47388 33.7024 8.06955 33.0556 7.78692 32.344C7.49644 31.6032 7.34935 30.8053 7.35482 30V14C7.35482 13.4696 7.54854 12.9608 7.89337 12.5858C8.23819 12.2107 8.70588 12 9.19353 12H11.0322ZM12.871 12H18.3871V8.99999C18.3871 8.58399 18.3154 8.19199 18.172 7.82799C17.9638 7.28234 17.6105 6.81679 17.1574 6.49107C16.7043 6.16536 16.1721 5.99435 15.629 5.99999C15.2466 5.99999 14.8862 6.07799 14.5515 6.23399C14.0499 6.46038 13.6219 6.84465 13.3224 7.33749C13.023 7.83034 12.8658 8.40927 12.871 8.99999V12Z" fill="#53B38D"/>
<path d="M38.7742 12.44H41.1142V24.76H48.2942V27H38.7742V12.44ZM50.2118 22.68C50.2118 21.8267 50.4118 21.06 50.8118 20.38C51.2118 19.6867 51.7718 19.1467 52.4918 18.76C53.2252 18.36 54.0518 18.16 54.9718 18.16C55.9185 18.16 56.7385 18.36 57.4318 18.76C58.1385 19.1467 58.6852 19.6867 59.0718 20.38C59.4585 21.06 59.6518 21.8267 59.6518 22.68C59.6518 23.5333 59.4585 24.3067 59.0718 25C58.6852 25.68 58.1385 26.22 57.4318 26.62C56.7385 27.02 55.9118 27.22 54.9518 27.22C54.0452 27.22 53.2318 27.04 52.5118 26.68C51.7918 26.3067 51.2252 25.78 50.8118 25.1C50.4118 24.42 50.2118 23.6133 50.2118 22.68ZM52.4718 22.7C52.4718 23.1933 52.5785 23.6467 52.7918 24.06C53.0052 24.46 53.2985 24.78 53.6718 25.02C54.0452 25.26 54.4585 25.38 54.9118 25.38C55.4052 25.38 55.8318 25.26 56.1918 25.02C56.5652 24.78 56.8518 24.46 57.0518 24.06C57.2652 23.6467 57.3718 23.1933 57.3718 22.7C57.3718 22.1933 57.2652 21.74 57.0518 21.34C56.8518 20.9267 56.5652 20.6 56.1918 20.36C55.8318 20.12 55.4052 20 54.9118 20C54.4452 20 54.0252 20.1267 53.6518 20.38C53.2918 20.62 53.0052 20.94 52.7918 21.34C52.5785 21.74 52.4718 22.1933 52.4718 22.7ZM62.3056 31.08L61.0056 29.68C61.3789 29.3733 61.6722 28.9933 61.8856 28.54C62.1122 28.0867 62.2256 27.5467 62.2256 26.92V18.54H64.4656V27.02C64.4656 28.0067 64.2989 28.8267 63.9656 29.48C63.6322 30.1467 63.0789 30.68 62.3056 31.08ZM62.0856 15.52C62.0856 15.1733 62.2189 14.8867 62.4856 14.66C62.7656 14.4333 63.0656 14.32 63.3856 14.32C63.7056 14.32 63.9922 14.4333 64.2456 14.66C64.5122 14.8867 64.6456 15.1733 64.6456 15.52C64.6456 15.8667 64.5122 16.1533 64.2456 16.38C63.9922 16.5933 63.7056 16.7 63.3856 16.7C63.0656 16.7 62.7656 16.5867 62.4856 16.36C62.2189 16.1333 62.0856 15.8533 62.0856 15.52ZM67.4939 18.54H69.7339V27H67.4939V18.54ZM67.3939 15.52C67.3939 15.1733 67.5272 14.8867 67.7939 14.66C68.0739 14.4333 68.3739 14.32 68.6939 14.32C69.0139 14.32 69.3005 14.4333 69.5539 14.66C69.8205 14.8867 69.9539 15.1733 69.9539 15.52C69.9539 15.8667 69.8205 16.1533 69.5539 16.38C69.3005 16.5933 69.0139 16.7 68.6939 16.7C68.3739 16.7 68.0739 16.5867 67.7939 16.36C67.5272 16.1333 67.3939 15.8533 67.3939 15.52ZM74.8264 18.54L75.0264 20.36L74.9464 20.12C75.2397 19.5333 75.673 19.0667 76.2464 18.72C76.833 18.36 77.5264 18.18 78.3264 18.18C79.1264 18.18 79.7864 18.4133 80.3064 18.88C80.8264 19.3467 81.093 19.96 81.1064 20.72V27H78.8664V21.52C78.853 21.0933 78.733 20.7533 78.5064 20.5C78.2797 20.2333 77.9197 20.0933 77.4264 20.08C76.973 20.08 76.5664 20.22 76.2064 20.5C75.8464 20.7667 75.5597 21.14 75.3464 21.62C75.1464 22.0867 75.0464 22.6267 75.0464 23.24V27H72.8064V18.54H74.8264ZM84.1931 27V11.4H86.3931V20.4L86.3531 20.06C86.6464 19.5133 87.0797 19.0667 87.6531 18.72C88.2264 18.36 88.9131 18.18 89.7131 18.18C90.5131 18.18 91.1731 18.4133 91.6931 18.88C92.2131 19.3467 92.4797 19.96 92.4931 20.72V27H90.2531V21.52C90.2397 21.0933 90.1197 20.7533 89.8931 20.5C89.6664 20.2333 89.3064 20.0933 88.8131 20.08C88.3597 20.08 87.9531 20.22 87.5931 20.5C87.2331 20.78 86.9464 21.16 86.7331 21.64C86.5331 22.1067 86.4331 22.64 86.4331 23.24V27H84.1931ZM99.1398 27.22C98.3398 27.22 97.6131 27.0533 96.9598 26.72C96.3198 26.3867 95.8131 25.8933 95.4398 25.24C95.0665 24.5733 94.8798 23.7533 94.8798 22.78C94.8798 21.82 95.0731 21 95.4598 20.32C95.8598 19.6267 96.3798 19.0933 97.0198 18.72C97.6731 18.3467 98.3798 18.16 99.1398 18.16C99.9531 18.16 100.606 18.32 101.1 18.64C101.606 18.96 102 19.34 102.28 19.78L102.16 20.1L102.38 18.54H104.44V27H102.2V24.94L102.42 25.48C102.366 25.56 102.26 25.6933 102.1 25.88C101.94 26.0533 101.72 26.2467 101.44 26.46C101.16 26.6733 100.826 26.8533 100.44 27C100.066 27.1467 99.6331 27.22 99.1398 27.22ZM99.7598 25.38C100.16 25.38 100.52 25.3067 100.84 25.16C101.173 25.0133 101.453 24.8067 101.68 24.54C101.92 24.2733 102.093 23.9533 102.2 23.58V21.74C102.093 21.3933 101.92 21.0933 101.68 20.84C101.44 20.5733 101.146 20.3667 100.8 20.22C100.466 20.0733 100.093 20 99.6798 20C99.2265 20 98.8065 20.1133 98.4198 20.34C98.0331 20.5667 97.7198 20.88 97.4798 21.28C97.2531 21.68 97.1398 22.14 97.1398 22.66C97.1398 23.1667 97.2598 23.6267 97.4998 24.04C97.7398 24.4533 98.0598 24.78 98.4598 25.02C98.8598 25.26 99.2931 25.38 99.7598 25.38Z" fill="#275845"/>
</svg>
